<?xml version="1.0" encoding="utf-8"?>
<!-- Generator: Adobe Illustrator 23.0.1, SVG Export Plug-In . SVG Version: 6.00 Build 0)  -->
<svg version="1.1" id="Layer_1" xmlns="http://www.w3.org/2000/svg" xmlns:xlink="http://www.w3.org/1999/xlink" x="0px" y="0px"
	 viewBox="0 0 1000 1000" style="enable-background:new 0 0 1000 1000;" xml:space="preserve">
<style type="text/css">
	.st0{fill:#FFFFFF;}
	.st1{fill:none;}
	.st2{fill:#555555;}
</style>
<g>
	<path class="st0" d="M979.83,478.9c0.03,0.59,0.04,1.18,0.02,1.77c-0.05,1.78-0.29,3.56-0.73,5.32c-0.92,3.65-2.53,6.95-4.67,9.78
		c-3.21,4.25-7.58,7.45-12.53,9.25c-4.95,1.8-10.46,2.19-15.93,0.82l-360.75-90.48c0-0.1,0-0.2,0-0.3
		c-0.03-20.96-5.14-41.49-14.84-59.72l207.17,51.96c5.38,1.35,10.84-1.93,12.19-7.3l17.46-69.53c1.16-4.62,5.85-7.43,10.47-6.27
		l36.23,9.08c2.21,0.56,4.09,1.96,5.28,3.94c1.19,1.99,1.54,4.3,0.98,6.52l-10.78,42.94c-0.65,2.6-0.25,5.31,1.13,7.61
		c1.36,2.27,3.61,3.94,6.18,4.59l42.74,10.72c2.6,0.65,5.31,0.25,7.61-1.12c2.3-1.38,3.93-3.57,4.58-6.18l15.57-62.02
		c0.56-2.23,1.96-4.12,3.95-5.31c1.98-1.18,4.29-1.53,6.52-0.97l25.36,6.36c2.21,0.56,4.09,1.96,5.28,3.94
		c0.45,0.75,0.77,1.54,0.98,2.35c0.21,0.81,0.29,1.65,0.25,2.49c-0.03,0.56-0.11,1.12-0.25,1.67l-22.25,88.6
		c-0.64,2.57-0.23,5.34,1.13,7.61c1.21,2.01,3.04,3.51,5.22,4.29c0.31,0.11,0.63,0.21,0.96,0.29l4.95,1.24
		c11.38,2.85,19.81,13.01,20.56,24.72C979.82,478.02,979.81,478.46,979.83,478.9z"/>
	<path class="st0" d="M296.29,279.64c0.17-0.25,0.32-0.5,0.46-0.76c0.42-0.76,0.72-1.51,0.92-2.3l10.11-40.26
		c1.37-5.47,3.25-10.93,5.59-16.25c20.08-45.69,69.78-70.03,118.19-57.89l65.21,16.35c26.3,6.6,48.52,23.14,62.56,46.59
		c14.04,23.45,18.13,50.85,11.53,77.16l-9.63,38.35c-3.98-5.49-8.41-10.68-13.21-15.47l-31.34-31.29l1.22-4.86
		c0.95-3.78,1.41-7.62,1.4-11.45c-0.03-7.66-1.95-15.27-5.7-22.26c-0.37-0.7-0.77-1.39-1.18-2.08
		c-6.57-10.98-16.85-18.69-28.96-21.73l-65.21-16.35c-11.86-2.97-24.38-1.11-35.26,5.24c-9.9,5.78-17.25,14.56-20.96,24.97
		c-0.25,0.69-0.48,1.4-0.69,2.1c-16.19,6.42-30.64,15.93-42.96,28.27l-23.86,23.92c-0.82-0.65-1.76-1.37-2.64-1.91l-5.2-3.07
		l-0.12-0.06c-0.45-0.23-0.9-0.43-1.33-0.62l-0.63-0.29c-0.09-0.05-0.43-0.2-0.69-0.31l-0.23-0.1c-0.42-0.19-0.86-0.36-1.3-0.52
		c-0.75-0.31-1.55-0.59-2.67-0.96c-0.57-0.19-1.15-0.36-1.69-0.51c-0.43-0.12-0.84-0.23-1.17-0.3c-0.57-0.16-1.15-0.31-1.81-0.46
		c-0.22-0.05-0.45-0.1-0.69-0.15c-0.85-0.17-1.65-0.3-2.7-0.45c-0.49-0.08-0.98-0.16-1.44-0.2c-0.96-0.13-1.89-0.2-2.77-0.22
		l-0.15-0.01c-0.43-0.04-0.82-0.07-1.18-0.05c-0.76-0.03-1.48-0.06-2.1-0.05c-0.21,0-0.4,0.01-0.58,0.02
		c-0.54,0-1.04,0.02-1.42,0.06c-2.01,0.11-4.05,0.35-6.1,0.72c1.39-1.39,2.91-2.61,4.62-3.72c0.31-0.2,0.62-0.38,0.93-0.57
		c0.94-0.55,1.93-1.04,3.08-1.54c1.84-0.79,3.8-1.37,5.76-1.73c0.65-0.12,1.31-0.21,1.96-0.28l0.75-0.08
		c1.32-0.1,2.65-0.11,3.88-0.03l0.81,0.08c1.6,0.15,2.92,0.36,4.13,0.66l3.62,0.9c2.31,0.59,4.7,0.3,6.77-0.7
		C293.85,282.41,295.26,281.2,296.29,279.64z"/>
	<g>
		<path class="st1" d="M959.29,452.87l-4.95-1.24c-0.33-0.08-0.64-0.18-0.96-0.29c-2.18-0.78-4.02-2.28-5.22-4.29
			c-1.36-2.27-1.77-5.04-1.13-7.61l22.25-88.6c0.14-0.55,0.22-1.11,0.25-1.67c0.04-0.84-0.04-1.68-0.25-2.49
			c-0.21-0.82-0.53-1.61-0.98-2.35c-1.19-1.99-3.06-3.39-5.28-3.94l-25.36-6.36c-2.23-0.56-4.54-0.22-6.52,0.97
			c-1.98,1.19-3.38,3.07-3.95,5.31l-15.57,62.02c-0.65,2.6-2.28,4.8-4.58,6.18c-2.3,1.38-5.01,1.78-7.61,1.12l-42.74-10.72
			c-2.57-0.64-4.82-2.31-6.18-4.59c-1.38-2.3-1.78-5.01-1.13-7.61l10.78-42.94c0.56-2.22,0.21-4.53-0.98-6.52
			c-1.19-1.99-3.06-3.39-5.28-3.94l-36.23-9.08c-4.62-1.16-9.31,1.66-10.47,6.27L789.75,400c-1.35,5.37-6.82,8.65-12.19,7.3
			l-207.17-51.96c9.7,18.23,14.82,38.76,14.84,59.72c0,0.1,0,0.2,0,0.3l360.75,90.48c5.48,1.37,10.99,0.98,15.93-0.82
			c4.95-1.8,9.32-5,12.53-9.25c2.14-2.83,3.75-6.13,4.67-9.78c0.44-1.76,0.69-3.55,0.73-5.32c0.02-0.59,0.01-1.18-0.02-1.77
			c-0.02-0.44-0.01-0.88,0.02-1.3C979.1,465.88,970.67,455.72,959.29,452.87z"/>
		<path class="st1" d="M285.48,283.88l-3.62-0.9c-1.22-0.3-2.53-0.51-4.13-0.66l-0.81-0.08c-1.22-0.07-2.56-0.07-3.88,0.03
			l-0.75,0.08c-0.65,0.07-1.3,0.16-1.96,0.28c-1.96,0.36-3.92,0.95-5.76,1.73c-1.16,0.5-2.14,0.99-3.08,1.54
			c-0.31,0.18-0.62,0.37-0.93,0.57c-1.7,1.11-3.22,2.33-4.62,3.72c2.05-0.37,4.09-0.62,6.1-0.72c0.38-0.04,0.88-0.06,1.42-0.06
			c0.18-0.01,0.37-0.01,0.58-0.02c0.62,0,1.34,0.02,2.1,0.05c0.36-0.02,0.75,0.01,1.18,0.05l0.15,0.01
			c0.88,0.02,1.81,0.09,2.77,0.22c0.46,0.04,0.95,0.12,1.44,0.2c1.05,0.15,1.85,0.28,2.7,0.45c0.24,0.05,0.47,0.1,0.69,0.15
			c0.66,0.15,1.24,0.29,1.81,0.46c0.33,0.07,0.74,0.18,1.17,0.3c0.54,0.15,1.12,0.32,1.69,0.51c1.12,0.37,1.92,0.65,2.67,0.96
			c0.44,0.16,0.87,0.34,1.3,0.52l0.23,0.1c0.26,0.11,0.6,0.26,0.69,0.31l0.63,0.29c0.43,0.19,0.88,0.39,1.33,0.62l0.12,0.06
			l5.2,3.07c0.88,0.54,1.82,1.26,2.64,1.91l23.86-23.92c12.32-12.34,26.77-21.85,42.96-28.27c0.21-0.71,0.45-1.41,0.69-2.1
			c3.71-10.41,11.06-19.2,20.96-24.97c10.88-6.35,23.4-8.21,35.26-5.24l65.21,16.35c12.1,3.04,22.39,10.76,28.96,21.73
			c0.41,0.69,0.8,1.38,1.18,2.08c3.74,6.99,5.67,14.6,5.7,22.26c0.01,3.83-0.45,7.67-1.4,11.45l-1.22,4.86l31.34,31.29
			c4.8,4.79,9.23,9.98,13.21,15.47l9.63-38.35c6.61-26.31,2.51-53.71-11.53-77.16c-14.04-23.45-36.26-40-62.56-46.59l-65.21-16.35
			c-48.41-12.15-98.11,12.2-118.19,57.89c-2.34,5.31-4.22,10.78-5.59,16.25l-10.11,40.26c-0.2,0.79-0.5,1.55-0.92,2.3
			c-0.14,0.25-0.29,0.5-0.46,0.76c-1.03,1.57-2.44,2.77-4.05,3.55C290.18,284.18,287.79,284.47,285.48,283.88z"/>
		<path class="st1" d="M498.27,275.5l0.86,0.86c-0.22-4.44-1.56-8.8-3.96-12.8c-1.19-1.99-2.59-3.79-4.15-5.38
			c-3.44-3.5-7.71-5.98-12.45-7.17h0l-65.21-16.35c-2.08-0.52-4.22-0.78-6.38-0.78c-6.13,0-12.18,2.15-17.05,5.94
			c6.2-0.91,12.42-1.36,18.59-1.36C441.92,238.44,474.21,251.51,498.27,275.5z"/>
		<path class="st1" d="M187.3,181.23c-6.81-2.59-13.85-4.22-21-4.88c-2.38-0.22-4.78-0.33-7.19-0.33
			c-32.9,0-62.87,20.62-74.56,51.32c-1.89,4.97-3.27,10.05-4.14,15.17c-0.65,3.84-1.02,7.71-1.09,11.58
			c-0.24,11.61,2.1,23.22,7,34.13c5.43,12.13,13.62,22.48,23.85,30.39c6.14,4.74,13.01,8.61,20.47,11.44
			c9.16,3.49,18.7,5.26,28.35,5.26c11.21,0,22.17-2.36,32.58-7.03c2.43-1.09,4.78-2.29,7.06-3.59
			c15.95-9.12,28.16-23.35,34.78-40.73C249.03,242.95,228.34,196.86,187.3,181.23z"/>
		<path class="st2" d="M968.91,434.83l19.86-79.1c1.86-7.42,0.71-15.14-3.23-21.74c-3.95-6.6-10.21-11.26-17.63-13.12l-25.36-6.36
			c-15.36-3.85-31,5.52-34.85,20.88l-13.13,52.27l-23.24-5.83l8.33-33.19c1.86-7.42,0.72-15.14-3.23-21.74
			c-3.95-6.6-10.21-11.26-17.63-13.12l-36.23-9.08c-7.43-1.87-15.15-0.72-21.74,3.23c-6.59,3.95-11.25,10.21-13.11,17.64
			l-15.01,59.78L582.68,337.7l7.66-30.52c7.91-31.52,3.02-64.32-13.77-92.38c-16.8-28.06-43.4-47.86-74.92-55.77l-65.21-16.35
			c-25.55-6.41-51.91-4.47-76.24,5.61c-22.32,9.24-41.75,25.2-55.1,45.17c-16.9-39.66-49.36-71-89.59-86.32l-3.67-1.4h-0.15
			c-16.96-5.97-34.64-8.99-52.55-8.99c0,0,0,0,0,0c-31.88,0-62.76,9.48-89.29,27.4c-27.17,18.36-47.7,44.28-59.38,74.96
			c-15.09,39.67-13.85,82.85,3.49,121.58c17.41,38.7,48.81,68.35,88.43,83.47c18.27,6.95,37.31,10.48,56.6,10.48
			c8.94,0,17.92-0.77,26.75-2.29c-15.45,23.47-22.72,51.66-20.53,79.95c2.35,30.26,15.45,58.71,36.89,80.12l49.74,49.6
			c49.65,49.51,130.37,49.41,179.94-0.22l23.51-23.61l291.43,290.79c9.25,9.21,21.56,14.28,34.66,14.28
			c13.15,0,25.49-5.1,34.75-14.37c2.81-2.81,5.26-6.02,7.28-9.52c0.25-0.33,0.47-0.68,0.68-1.05c10.06-17.75,8.06-39.78-4.85-55.42
			l60.48-60.66c5.58-5.58,8.65-13,8.65-20.91c0-7.91-3.08-15.34-8.66-20.92l-19.34-19.28c-11.53-11.52-30.31-11.5-41.87,0.05
			l-40.08,40.21l-18.38-18.35l25.63-25.67c5.53-5.58,8.58-13,8.57-20.9c-0.01-7.94-3.09-15.36-8.68-20.9l-27.63-27.57
			c-5.57-5.57-12.99-8.63-20.93-8.63c-7.91,0.01-15.34,3.08-20.9,8.65l-45.83,45.95L524.64,528.67l23.59-23.65
			c18.96-19,31.17-42.93,35.37-69.33l357.49,89.66c25.36,6.35,51.16-9.1,57.52-34.45c0.95-3.79,1.4-7.67,1.34-11.53
			c0.04-0.39,0.05-0.79,0.04-1.17C999.53,458.68,987.12,441.49,968.91,434.83z M979.83,478.9c0.03,0.59,0.04,1.18,0.02,1.77
			c-0.05,1.78-0.29,3.56-0.73,5.32c-0.92,3.65-2.53,6.95-4.67,9.78c-3.21,4.25-7.58,7.45-12.53,9.25
			c-4.95,1.8-10.46,2.19-15.93,0.82l-360.75-90.48c0-0.1,0-0.2,0-0.3c-0.03-20.96-5.14-41.49-14.84-59.72l207.17,51.96
			c5.38,1.35,10.84-1.93,12.19-7.3l17.46-69.53c1.16-4.62,5.85-7.43,10.47-6.27l36.23,9.08c2.21,0.56,4.09,1.96,5.28,3.94
			c1.19,1.99,1.54,4.3,0.98,6.52l-10.78,42.94c-0.65,2.6-0.25,5.31,1.13,7.61c1.36,2.27,3.61,3.94,6.18,4.59l42.74,10.72
			c2.6,0.65,5.31,0.25,7.61-1.12c2.3-1.38,3.93-3.57,4.58-6.18l15.57-62.02c0.56-2.23,1.96-4.12,3.95-5.31
			c1.98-1.18,4.29-1.53,6.52-0.97l25.36,6.36c2.21,0.56,4.09,1.96,5.28,3.94c0.45,0.75,0.77,1.54,0.98,2.35
			c0.21,0.81,0.29,1.65,0.25,2.49c-0.03,0.56-0.11,1.12-0.25,1.67l-22.25,88.6c-0.64,2.57-0.23,5.34,1.13,7.61
			c1.21,2.01,3.04,3.51,5.22,4.29c0.31,0.11,0.63,0.21,0.96,0.29l4.95,1.24c11.38,2.85,19.81,13.01,20.56,24.72
			C979.82,478.02,979.81,478.46,979.83,478.9z M564.97,421.04c-0.13,2.54-0.37,5.15-0.73,7.98c-2.46,19.41-10.04,37.43-22.06,52.59
			c-1.72,2.17-3.52,4.27-5.42,6.32c-0.89,0.96-1.81,1.96-2.77,2.91l-30.67,30.74c-1.9,1.9-2.95,4.43-2.94,7.11
			c0,0.08,0,0.16,0.01,0.24c0.06,2.6,1.1,5.04,2.94,6.87L663.2,695.28c1.96,1.95,4.53,2.93,7.11,2.93c2.25,0,4.5-0.75,6.34-2.26
			c0.26-0.21,0.52-0.44,0.76-0.69l52.92-53.06c1.77-1.77,4.15-2.74,6.7-2.74c2.55,0,4.93,0.98,6.7,2.75l27.66,27.6
			c1.77,1.75,2.75,4.12,2.75,6.66c0,2.55-0.96,4.93-2.72,6.7l-32.71,32.78c-1.95,1.96-2.93,4.54-2.93,7.11
			c0,1.61,0.39,3.21,1.15,4.67c0.46,0.87,1.06,1.69,1.79,2.43l32.6,32.54c3.92,3.91,10.29,3.91,14.21-0.01l47.19-47.32
			c1.8-1.8,4.18-2.79,6.73-2.79c0.01,0,0.01,0,0.02,0c2.53,0,4.91,0.98,6.7,2.77l19.34,19.27c1.79,1.79,2.77,4.16,2.77,6.7
			c0,2.54-0.99,4.92-2.78,6.71l-67.42,67.61c-3.91,3.92-3.91,10.29,0.01,14.21l3.79,3.78c3.31,3.31,5.68,7.32,7.05,11.63
			c0.91,2.87,1.38,5.88,1.39,8.89c0.01,4.52-1.02,9.06-3.16,13.21c-0.27,0.37-0.52,0.77-0.75,1.19c-1.21,2.28-2.73,4.33-4.5,6.11
			c-11.3,11.3-29.7,11.32-41.01,0.06L462.37,576.84c-0.7-0.69-1.48-1.27-2.31-1.73c-1.44-0.79-3.06-1.21-4.7-1.21c0,0,0,0,0,0
			c-0.08,0-0.16,0-0.25,0c-2.6-0.04-4.98,0.98-6.95,2.95l-30.6,30.73c-41.73,41.79-109.7,41.88-151.51,0.18l-49.73-49.6
			c-41.79-41.73-41.87-109.7-0.18-151.51l30.58-30.64c1.56-1.56,2.52-3.58,2.81-5.72c0.09-1.2-0.02-2.57-0.27-4.04l-0.28-0.84
			c-0.47-1.3-1.17-2.46-2.1-3.44l-1.61-1.68l-1.42,1.14c-0.12,0.09-0.23,0.18-0.35,0.27l0,0l-1.22,0.94
			c-1.83,1.42-3.36,2.56-4.84,3.61l-0.21,0.15c-1.1,0.77-2.32,1.6-3.84,2.58l-0.49,0.32c-0.28,0.19-0.56,0.37-0.84,0.55
			c-1.02,0.65-2.05,1.27-3.08,1.89c-0.42,0.26-0.85,0.5-1.28,0.76c-0.36,0.21-0.72,0.43-1.09,0.64c-0.76,0.43-1.53,0.86-2.3,1.28
			c-1.15,0.63-2.31,1.25-3.49,1.85c-0.46,0.23-0.92,0.47-1.39,0.7c-0.28,0.14-0.57,0.29-0.85,0.43c-0.41,0.21-0.83,0.42-1.25,0.62
			c-0.22,0.11-0.45,0.19-0.67,0.27l-0.8,0.37c-0.22,0.1-0.44,0.21-0.66,0.31c-0.24,0.12-0.48,0.23-0.73,0.35
			c-15.46,6.95-31.67,10.91-48.3,11.79c-2.37,0.13-4.76,0.19-7.15,0.19c-16.45,0-32.69-3.01-48.29-8.94
			c-33.81-12.91-60.61-38.2-75.47-71.22c-14.8-33.05-15.86-69.9-2.98-103.76c0.68-1.79,1.46-3.7,2.4-5.84
			c0.18-0.41,0.36-0.81,0.54-1.22l0.24-0.53c0.63-1.4,1.27-2.76,1.94-4.12c0.29-0.58,0.57-1.17,0.87-1.75
			c0.71-1.39,1.49-2.85,2.31-4.32l0.29-0.53c0.11-0.21,0.23-0.42,0.35-0.63c0.98-1.72,2.04-3.49,3.15-5.25
			c0.16-0.25,0.32-0.5,0.48-0.74l0.36-0.54c0.89-1.37,1.73-2.63,2.58-3.84c0.38-0.55,0.77-1.09,1.15-1.62
			c0.83-1.16,1.72-2.35,2.64-3.54l0.39-0.51c0.22-0.29,0.44-0.58,0.66-0.86c1.34-1.69,2.6-3.21,3.84-4.64l0.44-0.49
			c1.13-1.29,2.35-2.62,3.61-3.95c0.31-0.33,0.62-0.65,0.94-0.97l0.36-0.37c1.01-1.03,2.03-2.05,3.05-3.03l0.33-0.32
			c0.34-0.33,0.68-0.66,1.03-0.98c1.23-1.15,2.5-2.3,3.78-3.41l0.34-0.3c0.11-0.1,0.21-0.19,0.32-0.29
			c1.44-1.23,2.94-2.46,4.61-3.76c0.26-0.2,0.52-0.4,0.78-0.6l0.5-0.38c1.24-0.94,2.4-1.8,3.55-2.62c0.26-0.19,0.52-0.37,0.78-0.55
			c0.26-0.18,0.52-0.37,0.78-0.55c1.17-0.81,2.42-1.65,3.72-2.48l0.52-0.34c0.25-0.17,0.5-0.33,0.76-0.49
			c1.71-1.08,3.42-2.1,5.08-3.05c0.16-0.09,0.31-0.17,0.47-0.26l0.43-0.23c1.45-0.81,2.91-1.59,4.32-2.32
			c0.5-0.26,1.01-0.51,1.52-0.76l0.14-0.07c0.63-0.31,1.29-0.61,1.93-0.92c0.65-0.31,1.28-0.62,1.93-0.92l0.47-0.22
			c0.38-0.18,0.76-0.35,1.15-0.52c1.82-0.81,3.5-1.51,5.13-2.16l0.32-0.13c0.43-0.17,0.86-0.33,1.3-0.5
			c1.33-0.5,2.73-1.01,4.26-1.53c0.26-0.09,0.52-0.17,0.78-0.26c0.09-0.03,0.18-0.06,0.27-0.09l0.57-0.18
			c1.41-0.46,2.8-0.9,4.12-1.29c0.61-0.18,1.22-0.36,1.83-0.53c1.41-0.39,2.91-0.79,4.46-1.16l0.57-0.14
			c0.25-0.06,0.5-0.13,0.75-0.18c1.92-0.45,3.87-0.85,5.8-1.22c0.24-0.05,0.48-0.09,0.73-0.13l0.6-0.1
			c1.57-0.28,3.11-0.52,4.57-0.73c0.64-0.09,1.28-0.17,1.92-0.25c1.37-0.18,2.81-0.33,4.29-0.47l0.59-0.06
			c0.39-0.04,0.78-0.08,1.17-0.11c2.18-0.18,4.13-0.3,5.97-0.37l0.34-0.01c1.42-0.05,2.7-0.1,3.91-0.1c0.4,0,0.8,0.01,1.19,0.02
			c0.16,0,0.31,0.01,0.47,0.01c0.64,0,1.28,0.02,1.93,0.04l0.66,0.02c1.26,0.03,2.51,0.07,3.77,0.14c0.89,0.05,1.79,0.11,2.7,0.18
			c1.23,0.09,2.46,0.19,3.68,0.32c0.91,0.09,1.82,0.2,2.74,0.31c1.23,0.15,2.45,0.32,3.68,0.5c0.91,0.14,1.82,0.28,2.72,0.43
			c1.24,0.21,2.48,0.45,3.72,0.7l0.42,0.09c0.74,0.15,1.49,0.3,2.23,0.46c1.29,0.28,2.57,0.61,3.85,0.93l0.79,0.2
			c0.57,0.14,1.14,0.28,1.71,0.44c1.39,0.38,2.8,0.81,4.24,1.25c0.29,0.09,0.57,0.17,0.86,0.26c0.41,0.12,0.82,0.24,1.23,0.37
			c0.56,0.18,1.11,0.36,1.64,0.55c1.61,0.55,3.14,1.09,4.64,1.66l0.13,0.05l0.13,0.05c3.17,1.22,6.32,2.56,9.39,4
			c1.02,0.48,2.04,0.98,3.04,1.48c4.04,2.03,8.02,4.29,11.83,6.71c5.62,3.57,11.03,7.61,16.06,11.98c3.31,2.87,6.51,5.95,9.53,9.14
			c1.49,1.57,2.97,3.22,4.39,4.88c2.83,3.3,5.53,6.77,8.03,10.33c4.98,7.09,9.31,14.71,12.87,22.63c1.77,3.95,3.37,8.03,4.76,12.12
			c1.2,3.53,2.28,7.27,3.23,11.14c-0.85,2.61-1.52,4.89-2.09,7.07c-0.08,0.3-0.16,0.61-0.24,0.91l-7.78,30.97
			c-0.41-0.05-0.83-0.09-1.26-0.13l-0.94-0.08c-2.23-0.15-4.52-0.14-6.89,0.05c-0.06,0.01-0.2,0.02-0.36,0.04
			c-0.26,0.03-0.57,0.06-0.61,0.06l-0.11,0.01c-2.95,0.31-5.88,0.9-8.75,1.78c0.35-4.27,0.44-8.52,0.26-12.72
			c-1.67-40.63-27.31-77.12-66.26-91.94c-11.74-4.47-24.01-6.73-36.48-6.73c-20.66,0-40.67,6.15-57.87,17.77
			c-15.4,10.41-27.51,24.57-35.37,41.26c-1.12,2.38-2.16,4.82-3.11,7.3c-9.78,25.7-8.97,53.65,2.28,78.7
			c11.24,25.1,31.59,44.31,57.29,54.09c1.48,0.56,3.05,1.12,4.67,1.65c0.32,0.1,0.64,0.2,0.96,0.29l0.58,0.18
			c1.06,0.33,2.11,0.66,3.17,0.95c0.42,0.12,0.84,0.22,1.26,0.32l0.72,0.18c0.92,0.24,1.85,0.47,2.78,0.68
			c0.49,0.11,0.99,0.21,1.49,0.31l0.51,0.1c0.93,0.19,1.86,0.38,2.79,0.54c0.6,0.11,1.2,0.2,1.8,0.29l0.27,0.04
			c0.91,0.14,1.83,0.28,2.74,0.4c0.7,0.09,1.41,0.17,2.11,0.24c0.9,0.1,1.81,0.18,2.71,0.26c0.71,0.06,1.42,0.11,2.14,0.15
			c0.9,0.05,1.81,0.09,2.71,0.12c0.71,0.02,1.43,0.04,2.14,0.05l0.44,0.01c0.49,0.02,0.98,0.01,1.47-0.01
			c0.18-0.01,0.36-0.01,0.54-0.02c0.96-0.01,1.93-0.04,2.89-0.08c0.78-0.03,1.55-0.08,2.32-0.13c0.96-0.06,1.93-0.14,2.89-0.23
			c0.77-0.07,1.54-0.15,2.31-0.24c0.97-0.11,1.93-0.24,2.95-0.39c0.74-0.11,1.48-0.22,2.21-0.34c0.98-0.16,1.95-0.35,2.92-0.55
			l0.41-0.08c0.6-0.12,1.2-0.24,1.8-0.37c0.99-0.22,1.98-0.47,2.97-0.72l0.59-0.15c0.51-0.13,1.03-0.26,1.54-0.4
			c0.96-0.27,1.92-0.56,2.88-0.86l0.86-0.26c0.44-0.13,0.88-0.27,1.31-0.41c1.09-0.36,2.17-0.76,3.25-1.16l0.74-0.27
			c0.34-0.12,0.67-0.24,1.01-0.37c1.7-0.66,3.36-1.35,4.93-2.05c1.07-0.48,2.11-0.99,3.15-1.51l0.2-0.1
			c0.85-0.42,1.7-0.85,2.54-1.29c0.73-0.38,1.45-0.77,2.17-1.17c0.83-0.46,1.66-0.94,2.48-1.43c0.7-0.41,1.39-0.83,2.08-1.26
			c0.83-0.52,1.65-1.06,2.46-1.6l0.32-0.21c0.53-0.35,1.06-0.7,1.58-1.07c0.1-0.07,0.2-0.15,0.31-0.22l0.2-0.15
			c0.72-0.51,1.43-1.03,2.13-1.55l0.46-0.34c0.36-0.26,0.71-0.53,1.06-0.8c1.06-0.82,2.14-1.71,3.32-2.7l0.27-0.22
			c0.13-0.1,0.26-0.21,0.39-0.32c0.27-0.23,0.52-0.47,0.78-0.71c0.17-0.15,0.33-0.31,0.5-0.46c2.4-2.14,4.5-4.18,6.42-6.21
			c1.3-1.39,2.56-2.79,3.71-4.16c0.69-0.69,1.35-1.32,1.98-1.9l0.19-0.2c5.71-6.96,14.15-10.95,23.14-10.95
			c3.18,0,6.35,0.52,9.42,1.54l0.1,0.03c0.37,0.1,0.79,0.23,1.35,0.41l0.28,0.09c0.19,0.06,0.38,0.12,0.57,0.2l0.11,0.05
			c0.29,0.13,0.54,0.24,0.94,0.37c0.07,0.03,0.15,0.07,0.24,0.1c0.31,0.15,0.62,0.29,0.92,0.43l4.24,2.46
			c0.24,0.15,0.5,0.36,0.79,0.59l0.38,0.3c0.26,0.2,0.47,0.35,0.65,0.46c0.69,0.59,1.4,1.2,2.04,1.84l2.74,2.74
			c1.9,1.9,4.42,2.94,7.11,2.94c2.65,0,5.24-1.07,7.11-2.95l30.65-30.71c7.75-7.76,16.59-14.25,26.27-19.3
			c3.04-1.58,6.14-3.02,9.23-4.27c2.83-1.14,5.84-2.2,8.95-3.15c24.94-7.6,51.18-5.84,74.18,4.16
			c12.05,5.24,23.21,12.74,32.84,22.34l49.74,49.67c4.9,4.88,9.26,10.17,13.06,15.8c11.41,16.89,17.77,36.8,18.2,57.7
			c0.01,0.29,0.02,0.59,0.03,0.88c0.01,0.43,0.03,0.87,0.03,1.3C565.14,416.93,565.08,418.88,564.97,421.04z M296.29,279.64
			c0.17-0.25,0.32-0.5,0.46-0.76c0.42-0.76,0.72-1.51,0.92-2.3l10.11-40.26c1.37-5.47,3.25-10.93,5.59-16.25
			c20.08-45.69,69.78-70.03,118.19-57.89l65.21,16.35c26.3,6.6,48.52,23.14,62.56,46.59c14.04,23.45,18.13,50.85,11.53,77.16
			l-9.63,38.35c-3.98-5.49-8.41-10.68-13.21-15.47l-31.34-31.29l1.22-4.86c0.95-3.78,1.41-7.62,1.4-11.45
			c-0.03-7.66-1.95-15.27-5.7-22.26c-0.37-0.7-0.77-1.39-1.18-2.08c-6.57-10.98-16.85-18.69-28.96-21.73l-65.21-16.35
			c-11.86-2.97-24.38-1.11-35.26,5.24c-9.9,5.78-17.25,14.56-20.96,24.97c-0.25,0.69-0.48,1.4-0.69,2.1
			c-16.19,6.42-30.64,15.93-42.96,28.27l-23.86,23.92c-0.82-0.65-1.76-1.37-2.64-1.91l-5.2-3.07l-0.12-0.06
			c-0.45-0.23-0.9-0.43-1.33-0.62l-0.63-0.29c-0.09-0.05-0.43-0.2-0.69-0.31l-0.23-0.1c-0.42-0.19-0.86-0.36-1.3-0.52
			c-0.75-0.31-1.55-0.59-2.67-0.96c-0.57-0.19-1.15-0.36-1.69-0.51c-0.43-0.12-0.84-0.23-1.17-0.3c-0.57-0.16-1.15-0.31-1.81-0.46
			c-0.22-0.05-0.45-0.1-0.69-0.15c-0.85-0.17-1.65-0.3-2.7-0.45c-0.49-0.08-0.98-0.16-1.44-0.2c-0.96-0.13-1.89-0.2-2.77-0.22
			l-0.15-0.01c-0.43-0.04-0.82-0.07-1.18-0.05c-0.76-0.03-1.48-0.06-2.1-0.05c-0.21,0-0.4,0.01-0.58,0.02
			c-0.54,0-1.04,0.02-1.42,0.06c-2.01,0.11-4.05,0.35-6.1,0.72c1.39-1.39,2.91-2.61,4.62-3.72c0.31-0.2,0.62-0.38,0.93-0.57
			c0.94-0.55,1.93-1.04,3.08-1.54c1.84-0.79,3.8-1.37,5.76-1.73c0.65-0.12,1.31-0.21,1.96-0.28l0.75-0.08
			c1.32-0.1,2.65-0.11,3.88-0.03l0.81,0.08c1.6,0.15,2.92,0.36,4.13,0.66l3.62,0.9c2.31,0.59,4.7,0.3,6.77-0.7
			C293.85,282.41,295.26,281.2,296.29,279.64z M406.98,233.86c2.15,0,4.3,0.26,6.38,0.78L478.57,251h0
			c4.74,1.19,9.01,3.67,12.45,7.17c1.57,1.59,2.96,3.4,4.15,5.38c2.39,4,3.73,8.36,3.96,12.8l-0.86-0.86
			c-24.05-23.99-56.35-37.06-89.74-37.06c-6.18,0-12.39,0.45-18.59,1.36C394.8,236.01,400.85,233.86,406.98,233.86z M198.63,324.71
			c-2.28,1.3-4.63,2.5-7.06,3.59c-10.41,4.66-21.38,7.03-32.58,7.03c-9.65,0-19.19-1.77-28.35-5.26
			c-7.46-2.84-14.33-6.7-20.47-11.44c-10.23-7.91-18.42-18.26-23.85-30.39c-4.9-10.9-7.24-22.52-7-34.13
			c0.08-3.87,0.44-7.74,1.09-11.58c0.87-5.12,2.25-10.2,4.14-15.17c11.69-30.7,41.66-51.32,74.56-51.32c2.41,0,4.81,0.11,7.19,0.33
			c7.16,0.65,14.19,2.29,21,4.88c41.04,15.62,61.73,61.72,46.11,102.75C226.78,301.36,214.58,315.58,198.63,324.71z"/>
	</g>
	<g>
		<path class="st0" d="M421.96,476.45l-65.21-16.35c-12.1-3.03-22.39-10.75-28.96-21.72c-4.81-8.04-7.17-17.2-6.82-26.29l-45,45.11
			c1.53,3.27,3.18,6.39,4.92,9.29c3.07,5.13,6.53,9.93,10.34,14.37c1.09,1.27,2.21,2.51,3.35,3.71c0.57,0.6,1.15,1.2,1.74,1.79
			c12.89,12.95,29.04,22.19,47.13,26.72l46.43,11.64l46.95-47.05c-1.26,0.11-2.51,0.16-3.73,0.16
			C429.33,477.82,425.58,477.36,421.96,476.45z"/>
		<path class="st0" d="M865.52,748.04c1.79-1.79,2.78-4.17,2.78-6.71c0-2.53-0.98-4.91-2.77-6.7l-19.34-19.27
			c-1.79-1.79-4.16-2.77-6.7-2.77c-0.01,0-0.01,0-0.02,0c-2.54,0-4.93,1-6.73,2.79l-47.19,47.32c-3.92,3.92-10.29,3.92-14.21,0.01
			l-32.6-32.54c-0.74-0.73-1.33-1.55-1.79-2.43c-0.77-1.46-1.15-3.06-1.15-4.67c0-2.57,0.97-5.15,2.93-7.11l32.71-32.78
			c1.75-1.77,2.72-4.15,2.72-6.7c0-2.54-0.98-4.91-2.75-6.66l-27.66-27.6c-1.78-1.78-4.16-2.75-6.7-2.75c-2.55,0-4.93,0.97-6.7,2.74
			l-52.92,53.06c-0.24,0.25-0.5,0.47-0.76,0.69c-1.84,1.5-4.09,2.25-6.34,2.26c-2.57,0-5.15-0.97-7.11-2.93L503.33,535.79
			c-1.84-1.83-2.88-4.27-2.94-6.87c-0.01-0.08-0.01-0.16-0.01-0.24c0-2.69,1.04-5.21,2.94-7.11l30.67-30.74
			c0.96-0.96,1.88-1.95,2.77-2.91c1.9-2.04,3.7-4.15,5.42-6.32c12.02-15.16,19.6-33.18,22.06-52.59c0.36-2.82,0.6-5.43,0.73-7.98
			c0.11-2.16,0.17-4.11,0.17-5.95c0-0.44-0.02-0.87-0.03-1.3c-0.01-0.29-0.02-0.59-0.03-0.88c-0.44-20.91-6.79-40.82-18.2-57.7
			c-3.8-5.63-8.17-10.92-13.06-15.8l-49.74-49.67c-9.63-9.6-20.79-17.1-32.84-22.34c-23.01-10-49.24-11.76-74.18-4.16
			c-3.11,0.95-6.12,2.01-8.95,3.15c-3.08,1.25-6.19,2.68-9.23,4.27c-9.68,5.04-18.52,11.54-26.27,19.3l-30.65,30.71
			c-1.87,1.87-4.46,2.95-7.11,2.95c-2.68,0-5.21-1.05-7.11-2.94l-2.74-2.74c-0.64-0.63-1.35-1.25-2.04-1.84
			c-0.18-0.11-0.39-0.26-0.65-0.46l-0.38-0.3c-0.3-0.24-0.55-0.45-0.79-0.59l-4.24-2.46c-0.31-0.14-0.61-0.28-0.92-0.43
			c-0.09-0.04-0.17-0.07-0.24-0.1c-0.4-0.12-0.65-0.23-0.94-0.37l-0.1-0.05c-0.19-0.09-0.38-0.14-0.57-0.2l-0.28-0.09
			c-0.57-0.19-0.98-0.31-1.35-0.41l-0.1-0.03c-3.08-1.02-6.25-1.54-9.42-1.54c-8.99,0-17.42,3.99-23.14,10.95l-0.19,0.2
			c-0.63,0.58-1.28,1.2-1.98,1.9c-1.15,1.36-2.41,2.77-3.71,4.16c-1.92,2.04-4.02,4.07-6.42,6.21c-0.17,0.15-0.33,0.3-0.5,0.46
			c-0.26,0.24-0.52,0.48-0.78,0.71c-0.13,0.11-0.26,0.22-0.39,0.32l-0.27,0.22c-1.18,1-2.26,1.88-3.32,2.7
			c-0.35,0.27-0.71,0.54-1.06,0.8l-0.46,0.34c-0.7,0.52-1.41,1.04-2.13,1.55l-0.2,0.15c-0.1,0.08-0.2,0.15-0.31,0.22
			c-0.52,0.37-1.05,0.72-1.58,1.07l-0.32,0.21c-0.81,0.54-1.63,1.08-2.46,1.6c-0.69,0.43-1.38,0.84-2.08,1.26
			c-0.82,0.49-1.64,0.96-2.48,1.43c-0.72,0.4-1.44,0.79-2.17,1.17c-0.84,0.44-1.68,0.87-2.54,1.29l-0.2,0.1
			c-1.04,0.51-2.09,1.03-3.15,1.51c-1.57,0.7-3.23,1.39-4.93,2.05c-0.33,0.13-0.67,0.25-1.01,0.37l-0.74,0.27
			c-1.08,0.4-2.16,0.8-3.25,1.16c-0.43,0.14-0.87,0.28-1.31,0.41l-0.86,0.26c-0.96,0.3-1.91,0.59-2.88,0.86
			c-0.51,0.14-1.03,0.27-1.54,0.4l-0.59,0.15c-0.99,0.25-1.98,0.5-2.97,0.72c-0.6,0.13-1.2,0.25-1.8,0.37l-0.41,0.08
			c-0.97,0.19-1.94,0.38-2.92,0.55c-0.74,0.12-1.48,0.23-2.21,0.34c-1.02,0.15-1.99,0.28-2.95,0.39c-0.77,0.09-1.54,0.17-2.31,0.24
			c-0.96,0.09-1.93,0.17-2.89,0.23c-0.78,0.05-1.55,0.09-2.32,0.12c-0.96,0.04-1.92,0.06-2.89,0.08c-0.18,0-0.36,0.01-0.54,0.02
			c-0.49,0.02-0.98,0.02-1.47,0.01l-0.44-0.01c-0.71-0.01-1.43-0.03-2.14-0.05c-0.9-0.03-1.81-0.07-2.71-0.12
			c-0.71-0.04-1.43-0.09-2.14-0.15c-0.91-0.07-1.81-0.16-2.71-0.26c-0.7-0.08-1.41-0.15-2.11-0.24c-0.92-0.12-1.83-0.25-2.74-0.4
			l-0.27-0.04c-0.6-0.09-1.2-0.19-1.8-0.29c-0.93-0.16-1.86-0.35-2.79-0.54l-0.51-0.1c-0.5-0.1-0.99-0.2-1.49-0.31
			c-0.93-0.21-1.85-0.45-2.77-0.68l-0.72-0.18c-0.42-0.1-0.84-0.21-1.26-0.32c-1.06-0.29-2.12-0.62-3.17-0.95l-0.58-0.18
			c-0.32-0.09-0.64-0.19-0.96-0.29c-1.62-0.53-3.19-1.09-4.67-1.65c-25.7-9.78-46.05-28.99-57.29-54.09
			c-11.25-25.06-12.06-53.01-2.28-78.7c0.95-2.48,1.98-4.92,3.11-7.3c7.86-16.69,19.97-30.85,35.37-41.26
			c17.2-11.63,37.21-17.77,57.87-17.77c12.47,0,24.75,2.26,36.48,6.73c38.95,14.83,64.6,51.31,66.26,91.94
			c0.17,4.2,0.09,8.45-0.26,12.72c2.87-0.87,5.8-1.47,8.75-1.78l0.11-0.01c0.04,0,0.35-0.04,0.61-0.06c0.16-0.02,0.3-0.03,0.36-0.04
			c2.36-0.18,4.65-0.2,6.89-0.05l0.94,0.08c0.43,0.04,0.85,0.08,1.26,0.13l7.78-30.97c0.07-0.3,0.16-0.6,0.24-0.91
			c0.57-2.18,1.24-4.46,2.09-7.07c-0.95-3.87-2.04-7.62-3.23-11.14c-1.38-4.09-2.98-8.17-4.76-12.12
			c-3.55-7.92-7.88-15.54-12.87-22.63c-2.5-3.56-5.2-7.04-8.03-10.33c-1.43-1.67-2.91-3.31-4.39-4.88
			c-3.02-3.19-6.22-6.26-9.53-9.14c-5.04-4.38-10.44-8.41-16.06-11.98c-3.81-2.42-7.79-4.68-11.83-6.71c-1.01-0.5-2.02-1-3.04-1.48
			c-3.07-1.45-6.21-2.79-9.39-4l-0.13-0.05l-0.13-0.05c-1.5-0.57-3.03-1.12-4.64-1.66c-0.54-0.18-1.08-0.36-1.64-0.55
			c-0.41-0.13-0.82-0.25-1.23-0.38c-0.28-0.08-0.57-0.17-0.86-0.26c-1.44-0.44-2.84-0.87-4.24-1.25c-0.57-0.16-1.14-0.3-1.71-0.44
			l-0.79-0.2c-1.28-0.32-2.57-0.64-3.85-0.93c-0.74-0.16-1.49-0.31-2.23-0.46l-0.42-0.09c-1.24-0.25-2.48-0.49-3.72-0.7
			c-0.91-0.16-1.81-0.3-2.72-0.43c-1.23-0.18-2.45-0.35-3.68-0.5c-0.91-0.11-1.83-0.22-2.74-0.31c-1.23-0.13-2.46-0.23-3.68-0.32
			c-0.91-0.07-1.8-0.13-2.7-0.18c-1.26-0.07-2.51-0.11-3.77-0.14l-0.66-0.02c-0.64-0.02-1.28-0.04-1.93-0.04
			c-0.15,0-0.31-0.01-0.47-0.01c-0.39-0.01-0.79-0.02-1.19-0.02c-1.21,0-2.49,0.05-3.91,0.1l-0.34,0.01
			c-1.84,0.07-3.79,0.19-5.97,0.37c-0.39,0.03-0.78,0.07-1.17,0.11l-0.59,0.06c-1.47,0.14-2.91,0.3-4.29,0.47
			c-0.64,0.08-1.28,0.16-1.92,0.25c-1.47,0.21-3,0.45-4.57,0.73l-0.6,0.1c-0.24,0.04-0.49,0.08-0.73,0.13
			c-1.93,0.36-3.88,0.77-5.8,1.22c-0.25,0.06-0.5,0.12-0.75,0.18l-0.57,0.14c-1.55,0.38-3.05,0.77-4.46,1.16
			c-0.61,0.17-1.22,0.35-1.83,0.53c-1.32,0.39-2.71,0.82-4.12,1.29l-0.57,0.18c-0.09,0.03-0.18,0.06-0.27,0.09
			c-0.26,0.09-0.52,0.17-0.78,0.26c-1.53,0.52-2.93,1.03-4.26,1.53c-0.44,0.17-0.88,0.33-1.3,0.5l-0.32,0.13
			c-1.63,0.64-3.31,1.35-5.13,2.16c-0.39,0.17-0.77,0.35-1.15,0.52l-0.47,0.22c-0.65,0.3-1.29,0.61-1.93,0.92
			c-0.65,0.31-1.3,0.61-1.93,0.92l-0.14,0.07c-0.51,0.25-1.02,0.5-1.52,0.76c-1.42,0.73-2.87,1.51-4.32,2.32l-0.43,0.23
			c-0.16,0.09-0.32,0.17-0.47,0.26c-1.66,0.95-3.36,1.97-5.08,3.05c-0.26,0.16-0.51,0.33-0.76,0.49l-0.52,0.34
			c-1.29,0.83-2.54,1.67-3.72,2.48c-0.26,0.18-0.52,0.37-0.78,0.55c-0.26,0.18-0.52,0.36-0.78,0.55c-1.15,0.82-2.31,1.68-3.55,2.62
			l-0.5,0.38c-0.26,0.2-0.52,0.39-0.78,0.6c-1.66,1.3-3.17,2.53-4.61,3.76c-0.11,0.09-0.22,0.19-0.32,0.29l-0.34,0.3
			c-1.28,1.11-2.55,2.26-3.78,3.41c-0.35,0.32-0.69,0.65-1.03,0.98l-0.33,0.32c-1.02,0.98-2.04,2-3.05,3.03l-0.36,0.37
			c-0.31,0.32-0.63,0.64-0.94,0.97c-1.26,1.33-2.48,2.66-3.61,3.95l-0.44,0.49c-1.24,1.43-2.49,2.95-3.84,4.64
			c-0.22,0.28-0.44,0.57-0.66,0.86l-0.39,0.51c-0.92,1.19-1.81,2.39-2.64,3.54c-0.39,0.54-0.77,1.08-1.15,1.62
			c-0.85,1.21-1.69,2.47-2.58,3.84l-0.35,0.54c-0.16,0.25-0.33,0.49-0.48,0.74c-1.11,1.76-2.17,3.53-3.15,5.25
			c-0.12,0.21-0.23,0.42-0.35,0.63l-0.29,0.53c-0.82,1.48-1.6,2.93-2.31,4.32c-0.3,0.58-0.58,1.16-0.87,1.75
			c-0.67,1.36-1.31,2.72-1.94,4.12l-0.24,0.53c-0.18,0.4-0.37,0.81-0.54,1.22c-0.93,2.15-1.72,4.06-2.4,5.84
			c-12.88,33.86-11.82,70.71,2.98,103.76c14.85,33.02,41.65,58.31,75.47,71.22c15.59,5.93,31.84,8.94,48.29,8.94
			c2.39,0,4.77-0.06,7.15-0.19c16.62-0.88,32.84-4.84,48.3-11.79c0.25-0.11,0.49-0.23,0.73-0.35c0.22-0.11,0.44-0.21,0.66-0.31
			l0.8-0.37c0.23-0.08,0.45-0.17,0.67-0.27c0.42-0.2,0.83-0.41,1.25-0.62c0.28-0.14,0.56-0.29,0.85-0.43
			c0.47-0.23,0.93-0.46,1.39-0.7c1.17-0.6,2.33-1.22,3.49-1.85c0.77-0.42,1.54-0.84,2.3-1.28c0.36-0.21,0.72-0.43,1.09-0.64
			c0.43-0.25,0.86-0.5,1.28-0.76c1.04-0.62,2.07-1.25,3.08-1.89c0.28-0.18,0.56-0.36,0.84-0.55l0.49-0.32
			c1.51-0.99,2.73-1.81,3.84-2.58l0.21-0.15c1.48-1.04,3.01-2.19,4.84-3.61l1.22-0.94l0,0c0.12-0.09,0.23-0.18,0.35-0.27l1.42-1.14
			l1.61,1.68c0.93,0.98,1.63,2.14,2.1,3.44l0.28,0.84c0.24,1.47,0.35,2.84,0.27,4.04c-0.29,2.14-1.25,4.16-2.81,5.72l-30.58,30.64
			c-41.69,41.81-41.61,109.78,0.18,151.51l49.73,49.6c41.81,41.7,109.78,41.61,151.51-0.18l30.6-30.73
			c1.97-1.97,4.35-2.99,6.95-2.95c0.08,0,0.16-0.01,0.25,0c0,0,0,0,0,0c1.65,0,3.26,0.42,4.7,1.21c0.84,0.46,1.62,1.03,2.31,1.73
			l298.54,297.89c11.31,11.27,29.71,11.24,41.01-0.06c1.77-1.77,3.29-3.83,4.5-6.11c0.23-0.42,0.48-0.82,0.75-1.19
			c2.14-4.15,3.17-8.69,3.16-13.21c-0.01-3.01-0.48-6.02-1.39-8.89c-1.37-4.31-3.74-8.32-7.05-11.63l-3.79-3.78
			c-3.92-3.92-3.92-10.29-0.01-14.21L865.52,748.04z M494.19,448.56c-0.42,0.45-0.83,0.9-1.27,1.33l-48.43,48.56l-68.04,68.17
			c-7.41,7.44-16.93,12.17-27.35,13.7c-2.41,0.35-4.86,0.53-7.34,0.54c-13.3,0-25.62-5.01-34.76-14.11l-49.71-49.65
			c-9.2-9.16-14.28-21.51-14.29-34.77c-0.01-10.51,3.11-20.37,9.03-28.66c0.4-0.55,0.8-1.1,1.22-1.64c1.25-1.61,2.57-3.1,3.9-4.43
			l116.4-116.73c9.13-9.13,21.48-14.17,34.76-14.19c0.83,0,1.65,0.02,2.48,0.05c12.32,0.57,23.7,5.5,32.23,14.03l49.76,49.63
			c0.25,0.25,0.48,0.5,0.72,0.75l0.24,0.25c8.58,9.04,13.31,21.03,13.32,33.76c0,1.37-0.06,2.72-0.17,4.07
			c-0.05,0.62-0.11,1.23-0.18,1.84c-1.16,10.18-5.35,19.58-12.14,27.08C494.46,448.28,494.32,448.42,494.19,448.56z"/>
		<path class="st0" d="M482.1,431.56c3.17-4.71,4.87-10.37,4.87-16.39c0-0.86-0.04-1.71-0.11-2.56L482.1,431.56z"/>
		<path class="st2" d="M506.9,419.22c0.1-1.35,0.17-2.7,0.17-4.07c-0.01-12.73-4.75-24.72-13.32-33.76l-0.24-0.25
			c-0.24-0.25-0.47-0.5-0.72-0.75l-49.76-49.63c-8.53-8.53-19.92-13.47-32.23-14.03c-0.82-0.04-1.65-0.06-2.48-0.05
			c-13.28,0.02-25.63,5.06-34.76,14.19l-116.4,116.73c-1.33,1.33-2.65,2.83-3.9,4.43c-0.42,0.54-0.83,1.08-1.22,1.64
			c-5.93,8.29-9.05,18.15-9.03,28.66c0.01,13.26,5.09,25.61,14.29,34.77L307,566.74c9.14,9.1,21.46,14.11,34.76,14.11
			c2.49,0,4.94-0.18,7.34-0.54c10.42-1.52,19.95-6.26,27.35-13.7l68.04-68.17l48.43-48.56c0.43-0.43,0.85-0.88,1.27-1.33
			c0.13-0.14,0.27-0.28,0.4-0.42c6.78-7.5,10.97-16.9,12.14-27.08C506.79,420.45,506.85,419.84,506.9,419.22z M362.22,552.43
			L362.22,552.43c-5.33,5.36-12.61,8.31-20.55,8.32c-7.87,0-15.14-2.93-20.48-8.25l-49.78-49.71c-5.36-5.34-8.31-12.61-8.32-20.49
			c0-1.87,0.17-3.72,0.51-5.55c0.01,0.02,0.02,0.03,0.03,0.05c16.79,28.06,43.4,47.86,74.92,55.77l34.78,8.72L362.22,552.43z
			 M389.88,524.71l-46.43-11.64c-18.08-4.53-34.24-13.77-47.13-26.72c-0.59-0.59-1.17-1.19-1.74-1.79
			c-1.14-1.21-2.26-2.45-3.35-3.71c-3.81-4.44-7.27-9.24-10.34-14.37c-1.73-2.89-3.38-6.01-4.92-9.29l45-45.11
			c-0.34,9.09,2.01,18.25,6.82,26.29c6.57,10.98,16.85,18.69,28.96,21.72l65.21,16.35c3.63,0.91,7.37,1.37,11.14,1.37
			c1.22,0,2.47-0.05,3.73-0.16L389.88,524.71z M459.98,437.11c-1.74,6.94-6.19,12.85-12.54,16.65c-0.4,0.24-0.8,0.46-1.2,0.68
			c-5.21,2.8-10.99,3.85-16.65,3.04c-0.92-0.13-1.84-0.31-2.75-0.54l-65.21-16.35c-6.03-1.51-11.3-5.11-15.07-10.25
			c-0.54-0.73-1.05-1.5-1.52-2.3c-0.95-1.59-1.74-3.24-2.36-4.93c-1.08-2.95-1.64-6.02-1.66-9.09c-0.01-2.19,0.25-4.39,0.79-6.54
			l5.47-21.78l35.71-35.79l4.82-4.88c5.39-5.39,12.69-8.36,20.56-8.36c7.84,0,15.1,2.95,20.45,8.3l43.42,43.31L459.98,437.11z
			 M482.1,431.56l4.76-18.95c0.07,0.85,0.11,1.7,0.11,2.56C486.97,421.19,485.27,426.85,482.1,431.56z"/>
	</g>
</g>
</svg>
